<svg xmlns="http://www.w3.org/2000/svg" width="26.25" height="30" viewBox="0 0 26.25 30">
  <path id="icon-backend" d="M26.25,4.286V6.964c0,2.361-5.879,4.286-13.125,4.286S0,9.325,0,6.964V4.286C0,1.925,5.879,0,13.125,0S26.25,1.925,26.25,4.286Zm0,6.027v6.027c0,2.361-5.879,4.286-13.125,4.286S0,18.7,0,16.339V10.313c2.82,1.942,7.981,2.846,13.125,2.846S23.43,12.254,26.25,10.313Zm0,9.375v6.027C26.25,28.075,20.371,30,13.125,30S0,28.075,0,25.714V19.688c2.82,1.942,7.981,2.846,13.125,2.846S23.43,21.629,26.25,19.688Z" fill="#fff"/>
</svg>
