<svg xmlns="http://www.w3.org/2000/svg" width="25.641" height="25" viewBox="0 0 25.641 25">
  <path id="icon-github" d="M8.576,20.692c0,.1-.119.186-.269.186-.171.016-.289-.067-.289-.186,0-.1.119-.186.269-.186C8.442,20.491,8.576,20.574,8.576,20.692ZM6.968,20.46c-.036.1.067.222.222.253a.242.242,0,0,0,.321-.1c.031-.1-.067-.222-.222-.269A.265.265,0,0,0,6.968,20.46Zm2.285-.088c-.15.036-.253.134-.238.253.016.1.15.171.3.134s.253-.134.238-.238S9.4,20.356,9.253,20.372ZM12.655.563A12.4,12.4,0,0,0,0,13.176,12.96,12.96,0,0,0,8.762,25.541c.662.119.894-.289.894-.626,0-.321-.016-2.088-.016-3.174,0,0-3.619.775-4.379-1.541,0,0-.589-1.5-1.437-1.892,0,0-1.184-.812.083-.8a2.729,2.729,0,0,1,2,1.334,2.733,2.733,0,0,0,3.769,1.08,2.873,2.873,0,0,1,.827-1.742c-2.89-.321-5.805-.739-5.805-5.712a3.918,3.918,0,0,1,1.22-3.045,4.884,4.884,0,0,1,.134-3.51c1.08-.336,3.567,1.4,3.567,1.4a12.212,12.212,0,0,1,6.493,0s2.487-1.737,3.567-1.4a4.882,4.882,0,0,1,.134,3.51,4.018,4.018,0,0,1,1.334,3.045c0,4.989-3.045,5.387-5.935,5.712a3.057,3.057,0,0,1,.879,2.4c0,1.742-.016,3.9-.016,4.322,0,.336.238.744.894.626a12.841,12.841,0,0,0,8.674-12.355A12.675,12.675,0,0,0,12.655.563Zm-7.63,17.83c-.067.052-.052.171.036.269.083.083.2.119.269.052.067-.052.052-.171-.036-.269C5.211,18.361,5.092,18.325,5.025,18.392Zm-.558-.419c-.036.067.016.15.119.2a.154.154,0,0,0,.222-.036c.036-.067-.016-.15-.119-.2C4.585,17.906,4.5,17.922,4.466,17.973Zm1.675,1.84c-.083.067-.052.222.067.321.119.119.269.134.336.052.067-.067.036-.222-.067-.321C6.364,19.746,6.209,19.731,6.141,19.814Zm-.589-.76c-.083.052-.083.186,0,.305s.222.171.289.119a.236.236,0,0,0,0-.321C5.769,19.038,5.635,18.987,5.552,19.054Z" transform="translate(0 -0.563)" fill="#fff"/>
</svg>
